<mxfile host="app.diagrams.net" agent="Mozilla/5.0 (Windows NT 10.0; Win64; x64) AppleWebKit/537.36 (KHTML, like Gecko) Chrome/129.0.0.0 Safari/537.36" version="24.7.17">
  <diagram name="PÃ¡gina-1" id="uWwkSnIH5kXpYjTDo2TJ">
    <mxGraphModel dx="1434" dy="1919" grid="1" gridSize="10" guides="1" tooltips="1" connect="1" arrows="1" fold="1" page="1" pageScale="1" pageWidth="827" pageHeight="1169" math="0" shadow="0">
      <root>
        <mxCell id="0" />
        <mxCell id="1" parent="0" />
        <mxCell id="DCx5kYRVt0v4VhSIN6Yf-1" value="ATOR" style="whiteSpace=wrap;html=1;align=center;" vertex="1" parent="1">
          <mxGeometry x="403" y="10" width="100" height="40" as="geometry" />
        </mxCell>
        <mxCell id="DCx5kYRVt0v4VhSIN6Yf-2" value="FILME" style="whiteSpace=wrap;html=1;align=center;" vertex="1" parent="1">
          <mxGeometry x="794" y="80" width="100" height="40" as="geometry" />
        </mxCell>
        <mxCell id="DCx5kYRVt0v4VhSIN6Yf-3" value="ORCAMENTO" style="whiteSpace=wrap;html=1;align=center;" vertex="1" parent="1">
          <mxGeometry x="296" y="240" width="100" height="40" as="geometry" />
        </mxCell>
        <mxCell id="DCx5kYRVt0v4VhSIN6Yf-4" value="Id" style="ellipse;whiteSpace=wrap;html=1;align=center;fontStyle=4;" vertex="1" parent="1">
          <mxGeometry x="323" y="320" width="46" height="30" as="geometry" />
        </mxCell>
        <mxCell id="DCx5kYRVt0v4VhSIN6Yf-5" value="NContribuinte" style="ellipse;whiteSpace=wrap;html=1;align=center;fontStyle=4;" vertex="1" parent="1">
          <mxGeometry x="349.5" y="85" width="97" height="50" as="geometry" />
        </mxCell>
        <mxCell id="DCx5kYRVt0v4VhSIN6Yf-6" value="Nome" style="ellipse;whiteSpace=wrap;html=1;align=center;" vertex="1" parent="1">
          <mxGeometry x="296" y="170" width="100" height="40" as="geometry" />
        </mxCell>
        <mxCell id="DCx5kYRVt0v4VhSIN6Yf-8" value="Valor" style="ellipse;whiteSpace=wrap;html=1;align=center;" vertex="1" parent="1">
          <mxGeometry x="170" y="240" width="100" height="40" as="geometry" />
        </mxCell>
        <mxCell id="DCx5kYRVt0v4VhSIN6Yf-9" value="" style="endArrow=none;html=1;rounded=0;entryX=0.5;entryY=1;entryDx=0;entryDy=0;exitX=0.5;exitY=0;exitDx=0;exitDy=0;" edge="1" parent="1" source="DCx5kYRVt0v4VhSIN6Yf-4" target="DCx5kYRVt0v4VhSIN6Yf-3">
          <mxGeometry width="50" height="50" relative="1" as="geometry">
            <mxPoint x="146" y="390" as="sourcePoint" />
            <mxPoint x="196" y="340" as="targetPoint" />
          </mxGeometry>
        </mxCell>
        <mxCell id="DCx5kYRVt0v4VhSIN6Yf-10" value="" style="endArrow=none;html=1;rounded=0;entryX=0;entryY=0.5;entryDx=0;entryDy=0;exitX=1;exitY=0.5;exitDx=0;exitDy=0;" edge="1" parent="1" source="DCx5kYRVt0v4VhSIN6Yf-8" target="DCx5kYRVt0v4VhSIN6Yf-3">
          <mxGeometry width="50" height="50" relative="1" as="geometry">
            <mxPoint x="146" y="390" as="sourcePoint" />
            <mxPoint x="196" y="340" as="targetPoint" />
          </mxGeometry>
        </mxCell>
        <mxCell id="DCx5kYRVt0v4VhSIN6Yf-17" value="Nome" style="ellipse;whiteSpace=wrap;html=1;align=center;" vertex="1" parent="1">
          <mxGeometry x="293" y="15" width="70" height="30" as="geometry" />
        </mxCell>
        <mxCell id="DCx5kYRVt0v4VhSIN6Yf-19" value="DataNascimento" style="ellipse;whiteSpace=wrap;html=1;align=center;" vertex="1" parent="1">
          <mxGeometry x="403" y="-60" width="100" height="40" as="geometry" />
        </mxCell>
        <mxCell id="DCx5kYRVt0v4VhSIN6Yf-20" value="Idade" style="ellipse;whiteSpace=wrap;html=1;align=center;dashed=1;" vertex="1" parent="1">
          <mxGeometry x="537" y="10" width="50" height="40" as="geometry" />
        </mxCell>
        <mxCell id="DCx5kYRVt0v4VhSIN6Yf-21" value="Codigo" style="ellipse;whiteSpace=wrap;html=1;align=center;fontStyle=4;" vertex="1" parent="1">
          <mxGeometry x="794" y="150" width="100" height="40" as="geometry" />
        </mxCell>
        <mxCell id="DCx5kYRVt0v4VhSIN6Yf-24" value="Ano" style="ellipse;whiteSpace=wrap;html=1;align=center;" vertex="1" parent="1">
          <mxGeometry x="930" y="85" width="80" height="30" as="geometry" />
        </mxCell>
        <mxCell id="DCx5kYRVt0v4VhSIN6Yf-25" value="Titulo" style="ellipse;whiteSpace=wrap;html=1;align=center;" vertex="1" parent="1">
          <mxGeometry x="799" y="10" width="90" height="40" as="geometry" />
        </mxCell>
        <mxCell id="DCx5kYRVt0v4VhSIN6Yf-26" value="Direcao" style="ellipse;whiteSpace=wrap;html=1;align=center;" vertex="1" parent="1">
          <mxGeometry x="690" y="85" width="70" height="30" as="geometry" />
        </mxCell>
        <mxCell id="DCx5kYRVt0v4VhSIN6Yf-27" value="" style="endArrow=none;html=1;rounded=0;entryX=0.5;entryY=1;entryDx=0;entryDy=0;exitX=0.5;exitY=0;exitDx=0;exitDy=0;" edge="1" parent="1" source="DCx5kYRVt0v4VhSIN6Yf-21" target="DCx5kYRVt0v4VhSIN6Yf-2">
          <mxGeometry width="50" height="50" relative="1" as="geometry">
            <mxPoint x="780" y="230" as="sourcePoint" />
            <mxPoint x="830" y="180" as="targetPoint" />
          </mxGeometry>
        </mxCell>
        <mxCell id="DCx5kYRVt0v4VhSIN6Yf-29" value="" style="endArrow=none;html=1;rounded=0;entryX=0;entryY=0.5;entryDx=0;entryDy=0;exitX=1;exitY=0.5;exitDx=0;exitDy=0;" edge="1" parent="1" source="DCx5kYRVt0v4VhSIN6Yf-26" target="DCx5kYRVt0v4VhSIN6Yf-2">
          <mxGeometry width="50" height="50" relative="1" as="geometry">
            <mxPoint x="780" y="230" as="sourcePoint" />
            <mxPoint x="830" y="180" as="targetPoint" />
          </mxGeometry>
        </mxCell>
        <mxCell id="DCx5kYRVt0v4VhSIN6Yf-31" value="" style="endArrow=none;html=1;rounded=0;entryX=0;entryY=0.5;entryDx=0;entryDy=0;exitX=1;exitY=0.5;exitDx=0;exitDy=0;" edge="1" parent="1" source="DCx5kYRVt0v4VhSIN6Yf-2" target="DCx5kYRVt0v4VhSIN6Yf-24">
          <mxGeometry width="50" height="50" relative="1" as="geometry">
            <mxPoint x="780" y="230" as="sourcePoint" />
            <mxPoint x="830" y="180" as="targetPoint" />
          </mxGeometry>
        </mxCell>
        <mxCell id="DCx5kYRVt0v4VhSIN6Yf-32" value="" style="endArrow=none;html=1;rounded=0;entryX=0.5;entryY=1;entryDx=0;entryDy=0;exitX=0.5;exitY=0;exitDx=0;exitDy=0;" edge="1" parent="1" source="DCx5kYRVt0v4VhSIN6Yf-2" target="DCx5kYRVt0v4VhSIN6Yf-25">
          <mxGeometry width="50" height="50" relative="1" as="geometry">
            <mxPoint x="780" y="230" as="sourcePoint" />
            <mxPoint x="830" y="180" as="targetPoint" />
          </mxGeometry>
        </mxCell>
        <mxCell id="DCx5kYRVt0v4VhSIN6Yf-38" value="" style="endArrow=none;html=1;rounded=0;entryX=0.5;entryY=0;entryDx=0;entryDy=0;exitX=0.5;exitY=1;exitDx=0;exitDy=0;" edge="1" parent="1" source="DCx5kYRVt0v4VhSIN6Yf-6" target="DCx5kYRVt0v4VhSIN6Yf-3">
          <mxGeometry width="50" height="50" relative="1" as="geometry">
            <mxPoint x="106" y="420" as="sourcePoint" />
            <mxPoint x="156" y="370" as="targetPoint" />
          </mxGeometry>
        </mxCell>
        <mxCell id="DCx5kYRVt0v4VhSIN6Yf-39" value="" style="endArrow=none;html=1;rounded=0;entryX=1;entryY=0.5;entryDx=0;entryDy=0;exitX=0;exitY=0.5;exitDx=0;exitDy=0;" edge="1" parent="1" source="DCx5kYRVt0v4VhSIN6Yf-20" target="DCx5kYRVt0v4VhSIN6Yf-1">
          <mxGeometry width="50" height="50" relative="1" as="geometry">
            <mxPoint x="623" y="190" as="sourcePoint" />
            <mxPoint x="673" y="140" as="targetPoint" />
          </mxGeometry>
        </mxCell>
        <mxCell id="DCx5kYRVt0v4VhSIN6Yf-40" value="" style="endArrow=none;html=1;rounded=0;entryX=0.5;entryY=1;entryDx=0;entryDy=0;exitX=0.5;exitY=0;exitDx=0;exitDy=0;" edge="1" parent="1" source="DCx5kYRVt0v4VhSIN6Yf-1" target="DCx5kYRVt0v4VhSIN6Yf-19">
          <mxGeometry width="50" height="50" relative="1" as="geometry">
            <mxPoint x="623" y="190" as="sourcePoint" />
            <mxPoint x="673" y="140" as="targetPoint" />
          </mxGeometry>
        </mxCell>
        <mxCell id="DCx5kYRVt0v4VhSIN6Yf-41" value="" style="endArrow=none;html=1;rounded=0;entryX=1;entryY=0.5;entryDx=0;entryDy=0;exitX=0;exitY=0.5;exitDx=0;exitDy=0;" edge="1" parent="1" source="DCx5kYRVt0v4VhSIN6Yf-1" target="DCx5kYRVt0v4VhSIN6Yf-17">
          <mxGeometry width="50" height="50" relative="1" as="geometry">
            <mxPoint x="623" y="190" as="sourcePoint" />
            <mxPoint x="673" y="140" as="targetPoint" />
          </mxGeometry>
        </mxCell>
        <mxCell id="DCx5kYRVt0v4VhSIN6Yf-43" value="" style="endArrow=none;html=1;rounded=0;entryX=0.5;entryY=1;entryDx=0;entryDy=0;exitX=0.5;exitY=0;exitDx=0;exitDy=0;" edge="1" parent="1" source="DCx5kYRVt0v4VhSIN6Yf-5" target="DCx5kYRVt0v4VhSIN6Yf-1">
          <mxGeometry width="50" height="50" relative="1" as="geometry">
            <mxPoint x="623" y="190" as="sourcePoint" />
            <mxPoint x="673" y="140" as="targetPoint" />
          </mxGeometry>
        </mxCell>
        <mxCell id="DCx5kYRVt0v4VhSIN6Yf-44" value="Salario" style="ellipse;whiteSpace=wrap;html=1;align=center;" vertex="1" parent="1">
          <mxGeometry x="470" y="85" width="100" height="40" as="geometry" />
        </mxCell>
        <mxCell id="DCx5kYRVt0v4VhSIN6Yf-45" value="" style="endArrow=none;html=1;rounded=0;entryX=0.42;entryY=0.05;entryDx=0;entryDy=0;entryPerimeter=0;exitX=0.82;exitY=1.075;exitDx=0;exitDy=0;exitPerimeter=0;" edge="1" parent="1" source="DCx5kYRVt0v4VhSIN6Yf-1" target="DCx5kYRVt0v4VhSIN6Yf-44">
          <mxGeometry width="50" height="50" relative="1" as="geometry">
            <mxPoint x="700" y="210" as="sourcePoint" />
            <mxPoint x="750" y="160" as="targetPoint" />
          </mxGeometry>
        </mxCell>
        <mxCell id="DCx5kYRVt0v4VhSIN6Yf-46" value="REALIZADOR" style="whiteSpace=wrap;html=1;align=center;" vertex="1" parent="1">
          <mxGeometry x="720" y="290" width="100" height="40" as="geometry" />
        </mxCell>
        <mxCell id="DCx5kYRVt0v4VhSIN6Yf-47" value="NContribuinte" style="ellipse;whiteSpace=wrap;html=1;align=center;fontStyle=4;" vertex="1" parent="1">
          <mxGeometry x="721.5" y="365" width="97" height="50" as="geometry" />
        </mxCell>
        <mxCell id="DCx5kYRVt0v4VhSIN6Yf-48" value="Nome" style="ellipse;whiteSpace=wrap;html=1;align=center;" vertex="1" parent="1">
          <mxGeometry x="610" y="295" width="70" height="30" as="geometry" />
        </mxCell>
        <mxCell id="DCx5kYRVt0v4VhSIN6Yf-49" value="DataNascimento" style="ellipse;whiteSpace=wrap;html=1;align=center;" vertex="1" parent="1">
          <mxGeometry x="720" y="220" width="100" height="40" as="geometry" />
        </mxCell>
        <mxCell id="DCx5kYRVt0v4VhSIN6Yf-50" value="Idade" style="ellipse;whiteSpace=wrap;html=1;align=center;dashed=1;" vertex="1" parent="1">
          <mxGeometry x="854" y="290" width="50" height="40" as="geometry" />
        </mxCell>
        <mxCell id="DCx5kYRVt0v4VhSIN6Yf-51" value="" style="endArrow=none;html=1;rounded=0;entryX=1;entryY=0.5;entryDx=0;entryDy=0;exitX=0;exitY=0.5;exitDx=0;exitDy=0;" edge="1" parent="1" source="DCx5kYRVt0v4VhSIN6Yf-50" target="DCx5kYRVt0v4VhSIN6Yf-46">
          <mxGeometry width="50" height="50" relative="1" as="geometry">
            <mxPoint x="940" y="470" as="sourcePoint" />
            <mxPoint x="990" y="420" as="targetPoint" />
          </mxGeometry>
        </mxCell>
        <mxCell id="DCx5kYRVt0v4VhSIN6Yf-52" value="" style="endArrow=none;html=1;rounded=0;entryX=0.5;entryY=1;entryDx=0;entryDy=0;exitX=0.5;exitY=0;exitDx=0;exitDy=0;" edge="1" parent="1" source="DCx5kYRVt0v4VhSIN6Yf-46" target="DCx5kYRVt0v4VhSIN6Yf-49">
          <mxGeometry width="50" height="50" relative="1" as="geometry">
            <mxPoint x="940" y="470" as="sourcePoint" />
            <mxPoint x="990" y="420" as="targetPoint" />
          </mxGeometry>
        </mxCell>
        <mxCell id="DCx5kYRVt0v4VhSIN6Yf-53" value="" style="endArrow=none;html=1;rounded=0;entryX=1;entryY=0.5;entryDx=0;entryDy=0;exitX=0;exitY=0.5;exitDx=0;exitDy=0;" edge="1" parent="1" source="DCx5kYRVt0v4VhSIN6Yf-46" target="DCx5kYRVt0v4VhSIN6Yf-48">
          <mxGeometry width="50" height="50" relative="1" as="geometry">
            <mxPoint x="940" y="470" as="sourcePoint" />
            <mxPoint x="990" y="420" as="targetPoint" />
          </mxGeometry>
        </mxCell>
        <mxCell id="DCx5kYRVt0v4VhSIN6Yf-54" value="" style="endArrow=none;html=1;rounded=0;entryX=0.5;entryY=1;entryDx=0;entryDy=0;exitX=0.5;exitY=0;exitDx=0;exitDy=0;" edge="1" parent="1" source="DCx5kYRVt0v4VhSIN6Yf-47" target="DCx5kYRVt0v4VhSIN6Yf-46">
          <mxGeometry width="50" height="50" relative="1" as="geometry">
            <mxPoint x="940" y="470" as="sourcePoint" />
            <mxPoint x="990" y="420" as="targetPoint" />
          </mxGeometry>
        </mxCell>
        <mxCell id="DCx5kYRVt0v4VhSIN6Yf-57" value="PRODUTOR" style="whiteSpace=wrap;html=1;align=center;" vertex="1" parent="1">
          <mxGeometry x="460" y="390" width="100" height="40" as="geometry" />
        </mxCell>
        <mxCell id="DCx5kYRVt0v4VhSIN6Yf-58" value="NContribuinte" style="ellipse;whiteSpace=wrap;html=1;align=center;fontStyle=4;" vertex="1" parent="1">
          <mxGeometry x="461.5" y="465" width="97" height="50" as="geometry" />
        </mxCell>
        <mxCell id="DCx5kYRVt0v4VhSIN6Yf-59" value="Nome" style="ellipse;whiteSpace=wrap;html=1;align=center;" vertex="1" parent="1">
          <mxGeometry x="350" y="395" width="70" height="30" as="geometry" />
        </mxCell>
        <mxCell id="DCx5kYRVt0v4VhSIN6Yf-60" value="DataNascimento" style="ellipse;whiteSpace=wrap;html=1;align=center;" vertex="1" parent="1">
          <mxGeometry x="460" y="320" width="100" height="40" as="geometry" />
        </mxCell>
        <mxCell id="DCx5kYRVt0v4VhSIN6Yf-61" value="Idade" style="ellipse;whiteSpace=wrap;html=1;align=center;dashed=1;" vertex="1" parent="1">
          <mxGeometry x="594" y="390" width="50" height="40" as="geometry" />
        </mxCell>
        <mxCell id="DCx5kYRVt0v4VhSIN6Yf-62" value="" style="endArrow=none;html=1;rounded=0;entryX=1;entryY=0.5;entryDx=0;entryDy=0;exitX=0;exitY=0.5;exitDx=0;exitDy=0;" edge="1" parent="1" source="DCx5kYRVt0v4VhSIN6Yf-61" target="DCx5kYRVt0v4VhSIN6Yf-57">
          <mxGeometry width="50" height="50" relative="1" as="geometry">
            <mxPoint x="680" y="570" as="sourcePoint" />
            <mxPoint x="730" y="520" as="targetPoint" />
          </mxGeometry>
        </mxCell>
        <mxCell id="DCx5kYRVt0v4VhSIN6Yf-63" value="" style="endArrow=none;html=1;rounded=0;entryX=0.5;entryY=1;entryDx=0;entryDy=0;exitX=0.5;exitY=0;exitDx=0;exitDy=0;" edge="1" parent="1" source="DCx5kYRVt0v4VhSIN6Yf-57" target="DCx5kYRVt0v4VhSIN6Yf-60">
          <mxGeometry width="50" height="50" relative="1" as="geometry">
            <mxPoint x="680" y="570" as="sourcePoint" />
            <mxPoint x="730" y="520" as="targetPoint" />
          </mxGeometry>
        </mxCell>
        <mxCell id="DCx5kYRVt0v4VhSIN6Yf-64" value="" style="endArrow=none;html=1;rounded=0;entryX=1;entryY=0.5;entryDx=0;entryDy=0;exitX=0;exitY=0.5;exitDx=0;exitDy=0;" edge="1" parent="1" source="DCx5kYRVt0v4VhSIN6Yf-57" target="DCx5kYRVt0v4VhSIN6Yf-59">
          <mxGeometry width="50" height="50" relative="1" as="geometry">
            <mxPoint x="680" y="570" as="sourcePoint" />
            <mxPoint x="730" y="520" as="targetPoint" />
          </mxGeometry>
        </mxCell>
        <mxCell id="DCx5kYRVt0v4VhSIN6Yf-65" value="" style="endArrow=none;html=1;rounded=0;entryX=0.5;entryY=1;entryDx=0;entryDy=0;exitX=0.5;exitY=0;exitDx=0;exitDy=0;" edge="1" parent="1" source="DCx5kYRVt0v4VhSIN6Yf-58" target="DCx5kYRVt0v4VhSIN6Yf-57">
          <mxGeometry width="50" height="50" relative="1" as="geometry">
            <mxPoint x="680" y="570" as="sourcePoint" />
            <mxPoint x="730" y="520" as="targetPoint" />
          </mxGeometry>
        </mxCell>
        <mxCell id="DCx5kYRVt0v4VhSIN6Yf-67" value="Aprovado?" style="ellipse;whiteSpace=wrap;html=1;align=center;" vertex="1" parent="1">
          <mxGeometry x="446" y="240" width="100" height="40" as="geometry" />
        </mxCell>
        <mxCell id="DCx5kYRVt0v4VhSIN6Yf-68" value="" style="endArrow=none;html=1;rounded=0;entryX=1;entryY=0.5;entryDx=0;entryDy=0;exitX=0;exitY=0.5;exitDx=0;exitDy=0;" edge="1" parent="1" source="DCx5kYRVt0v4VhSIN6Yf-67" target="DCx5kYRVt0v4VhSIN6Yf-3">
          <mxGeometry width="50" height="50" relative="1" as="geometry">
            <mxPoint x="356" y="220" as="sourcePoint" />
            <mxPoint x="356" y="250" as="targetPoint" />
          </mxGeometry>
        </mxCell>
        <mxCell id="DCx5kYRVt0v4VhSIN6Yf-78" value="ENTRA_EM" style="shape=rhombus;perimeter=rhombusPerimeter;whiteSpace=wrap;html=1;align=center;" vertex="1" parent="1">
          <mxGeometry x="413" y="790" width="120" height="60" as="geometry" />
        </mxCell>
        <mxCell id="DCx5kYRVt0v4VhSIN6Yf-79" value="ATOR" style="whiteSpace=wrap;html=1;align=center;" vertex="1" parent="1">
          <mxGeometry x="250" y="800" width="100" height="40" as="geometry" />
        </mxCell>
        <mxCell id="DCx5kYRVt0v4VhSIN6Yf-80" value="FILME" style="whiteSpace=wrap;html=1;align=center;" vertex="1" parent="1">
          <mxGeometry x="610" y="800" width="100" height="40" as="geometry" />
        </mxCell>
        <mxCell id="DCx5kYRVt0v4VhSIN6Yf-83" value="" style="shape=link;html=1;rounded=0;entryX=0;entryY=0.5;entryDx=0;entryDy=0;exitX=1;exitY=0.5;exitDx=0;exitDy=0;" edge="1" parent="1" source="DCx5kYRVt0v4VhSIN6Yf-78" target="DCx5kYRVt0v4VhSIN6Yf-80">
          <mxGeometry relative="1" as="geometry">
            <mxPoint x="540" y="800" as="sourcePoint" />
            <mxPoint x="600" y="820" as="targetPoint" />
          </mxGeometry>
        </mxCell>
        <mxCell id="DCx5kYRVt0v4VhSIN6Yf-84" value="N" style="resizable=0;html=1;whiteSpace=wrap;align=right;verticalAlign=bottom;" connectable="0" vertex="1" parent="DCx5kYRVt0v4VhSIN6Yf-83">
          <mxGeometry x="1" relative="1" as="geometry" />
        </mxCell>
        <mxCell id="DCx5kYRVt0v4VhSIN6Yf-85" value="" style="endArrow=none;html=1;rounded=0;exitX=1;exitY=0.5;exitDx=0;exitDy=0;entryX=0;entryY=0.5;entryDx=0;entryDy=0;" edge="1" parent="1" source="DCx5kYRVt0v4VhSIN6Yf-79" target="DCx5kYRVt0v4VhSIN6Yf-78">
          <mxGeometry relative="1" as="geometry">
            <mxPoint x="440" y="820" as="sourcePoint" />
            <mxPoint x="600" y="820" as="targetPoint" />
          </mxGeometry>
        </mxCell>
        <mxCell id="DCx5kYRVt0v4VhSIN6Yf-86" value="M" style="resizable=0;html=1;whiteSpace=wrap;align=right;verticalAlign=bottom;" connectable="0" vertex="1" parent="DCx5kYRVt0v4VhSIN6Yf-85">
          <mxGeometry x="1" relative="1" as="geometry" />
        </mxCell>
        <mxCell id="DCx5kYRVt0v4VhSIN6Yf-87" value="REALIZA" style="shape=rhombus;perimeter=rhombusPerimeter;whiteSpace=wrap;html=1;align=center;" vertex="1" parent="1">
          <mxGeometry x="600" y="890" width="120" height="60" as="geometry" />
        </mxCell>
        <mxCell id="DCx5kYRVt0v4VhSIN6Yf-88" value="REALIZADOR" style="whiteSpace=wrap;html=1;align=center;" vertex="1" parent="1">
          <mxGeometry x="423" y="900" width="100" height="40" as="geometry" />
        </mxCell>
        <mxCell id="DCx5kYRVt0v4VhSIN6Yf-90" value="" style="shape=link;html=1;rounded=0;exitX=0.5;exitY=0;exitDx=0;exitDy=0;entryX=0.5;entryY=1;entryDx=0;entryDy=0;" edge="1" parent="1" source="DCx5kYRVt0v4VhSIN6Yf-87" target="DCx5kYRVt0v4VhSIN6Yf-80">
          <mxGeometry relative="1" as="geometry">
            <mxPoint x="440" y="970" as="sourcePoint" />
            <mxPoint x="600" y="970" as="targetPoint" />
          </mxGeometry>
        </mxCell>
        <mxCell id="DCx5kYRVt0v4VhSIN6Yf-91" value="1" style="resizable=0;html=1;whiteSpace=wrap;align=right;verticalAlign=bottom;" connectable="0" vertex="1" parent="DCx5kYRVt0v4VhSIN6Yf-90">
          <mxGeometry x="1" relative="1" as="geometry" />
        </mxCell>
        <mxCell id="DCx5kYRVt0v4VhSIN6Yf-92" value="" style="endArrow=none;html=1;rounded=0;exitX=1;exitY=0.5;exitDx=0;exitDy=0;entryX=0;entryY=0.5;entryDx=0;entryDy=0;" edge="1" parent="1" source="DCx5kYRVt0v4VhSIN6Yf-88" target="DCx5kYRVt0v4VhSIN6Yf-87">
          <mxGeometry relative="1" as="geometry">
            <mxPoint x="440" y="970" as="sourcePoint" />
            <mxPoint x="600" y="970" as="targetPoint" />
          </mxGeometry>
        </mxCell>
        <mxCell id="DCx5kYRVt0v4VhSIN6Yf-93" value="1" style="resizable=0;html=1;whiteSpace=wrap;align=right;verticalAlign=bottom;" connectable="0" vertex="1" parent="DCx5kYRVt0v4VhSIN6Yf-92">
          <mxGeometry x="1" relative="1" as="geometry" />
        </mxCell>
        <mxCell id="DCx5kYRVt0v4VhSIN6Yf-101" value="POSSUEM" style="shape=rhombus;perimeter=rhombusPerimeter;whiteSpace=wrap;html=1;align=center;" vertex="1" parent="1">
          <mxGeometry x="601.5" y="680" width="120" height="60" as="geometry" />
        </mxCell>
        <mxCell id="DCx5kYRVt0v4VhSIN6Yf-103" value="ORCAMENTO" style="whiteSpace=wrap;html=1;align=center;" vertex="1" parent="1">
          <mxGeometry x="804" y="690" width="100" height="40" as="geometry" />
        </mxCell>
        <mxCell id="DCx5kYRVt0v4VhSIN6Yf-108" value="" style="shape=link;html=1;rounded=0;exitX=0.5;exitY=0;exitDx=0;exitDy=0;entryX=0.5;entryY=1;entryDx=0;entryDy=0;" edge="1" parent="1" source="DCx5kYRVt0v4VhSIN6Yf-80" target="DCx5kYRVt0v4VhSIN6Yf-101">
          <mxGeometry relative="1" as="geometry">
            <mxPoint x="458.5" y="660" as="sourcePoint" />
            <mxPoint x="648.5" y="590" as="targetPoint" />
          </mxGeometry>
        </mxCell>
        <mxCell id="DCx5kYRVt0v4VhSIN6Yf-109" value="1" style="resizable=0;html=1;whiteSpace=wrap;align=right;verticalAlign=bottom;" connectable="0" vertex="1" parent="DCx5kYRVt0v4VhSIN6Yf-108">
          <mxGeometry x="1" relative="1" as="geometry" />
        </mxCell>
        <mxCell id="DCx5kYRVt0v4VhSIN6Yf-110" value="" style="shape=link;html=1;rounded=0;exitX=0.947;exitY=0.478;exitDx=0;exitDy=0;entryX=0;entryY=0.5;entryDx=0;entryDy=0;exitPerimeter=0;" edge="1" parent="1" source="DCx5kYRVt0v4VhSIN6Yf-101" target="DCx5kYRVt0v4VhSIN6Yf-103">
          <mxGeometry relative="1" as="geometry">
            <mxPoint x="468.5" y="670" as="sourcePoint" />
            <mxPoint x="532.5" y="670" as="targetPoint" />
          </mxGeometry>
        </mxCell>
        <mxCell id="DCx5kYRVt0v4VhSIN6Yf-111" value="1" style="resizable=0;html=1;whiteSpace=wrap;align=right;verticalAlign=bottom;" connectable="0" vertex="1" parent="DCx5kYRVt0v4VhSIN6Yf-110">
          <mxGeometry x="1" relative="1" as="geometry" />
        </mxCell>
        <mxCell id="DCx5kYRVt0v4VhSIN6Yf-112" value="PRODUTOR_DE" style="shape=rhombus;perimeter=rhombusPerimeter;whiteSpace=wrap;html=1;align=center;" vertex="1" parent="1">
          <mxGeometry x="760.09" y="790" width="120" height="60" as="geometry" />
        </mxCell>
        <mxCell id="DCx5kYRVt0v4VhSIN6Yf-113" value="PRODUTOR" style="whiteSpace=wrap;html=1;align=center;" vertex="1" parent="1">
          <mxGeometry x="956.09" y="800" width="100" height="40" as="geometry" />
        </mxCell>
        <mxCell id="DCx5kYRVt0v4VhSIN6Yf-114" value="" style="shape=link;html=1;rounded=0;entryX=0;entryY=0.5;entryDx=0;entryDy=0;exitX=1;exitY=0.5;exitDx=0;exitDy=0;" edge="1" parent="1" source="DCx5kYRVt0v4VhSIN6Yf-80" target="DCx5kYRVt0v4VhSIN6Yf-112">
          <mxGeometry relative="1" as="geometry">
            <mxPoint x="830" y="820" as="sourcePoint" />
            <mxPoint x="1100" y="820" as="targetPoint" />
          </mxGeometry>
        </mxCell>
        <mxCell id="DCx5kYRVt0v4VhSIN6Yf-115" value="M" style="resizable=0;html=1;whiteSpace=wrap;align=right;verticalAlign=bottom;" connectable="0" vertex="1" parent="DCx5kYRVt0v4VhSIN6Yf-114">
          <mxGeometry x="1" relative="1" as="geometry" />
        </mxCell>
        <mxCell id="DCx5kYRVt0v4VhSIN6Yf-116" value="" style="endArrow=none;html=1;rounded=0;exitX=0;exitY=0.5;exitDx=0;exitDy=0;" edge="1" parent="1" source="DCx5kYRVt0v4VhSIN6Yf-113">
          <mxGeometry relative="1" as="geometry">
            <mxPoint x="786.09" y="800" as="sourcePoint" />
            <mxPoint x="876.09" y="820" as="targetPoint" />
          </mxGeometry>
        </mxCell>
        <mxCell id="DCx5kYRVt0v4VhSIN6Yf-117" value="N" style="resizable=0;html=1;whiteSpace=wrap;align=right;verticalAlign=bottom;" connectable="0" vertex="1" parent="DCx5kYRVt0v4VhSIN6Yf-116">
          <mxGeometry x="1" relative="1" as="geometry">
            <mxPoint x="20" as="offset" />
          </mxGeometry>
        </mxCell>
      </root>
    </mxGraphModel>
  </diagram>
</mxfile>
